# xmcd CD database file
#
# Track frame offsets:
#	150
#	21560
#	46150
#
# Disc length: 899 seconds
#
# Revision: 0
# Processed by: cddbd v1.5PL3 Copyright (c) Steve Scherf et al.
# Submitted via: CDex 1.50
#
DISCID=1f038103
DTITLE=りょう - HINTS OF LOVE
DYEAR=1996
DGENRE=JPop
TTITLE0=HINTS OF LOVE
TTITLE1=HINTS OF LOVE(doughnut mix)
TTITLE2=HINTS OF LOVE(karaoke)
EXTD=YEAR: 1996
EXTT0=
EXTT1=
EXTT2=
PLAYORDER=
